<svg width="173" height="32" viewBox="0 0 173 32" fill="none" xmlns="http://www.w3.org/2000/svg">
<g clip-path="url(#clip0)">
<path fill-rule="evenodd" clip-rule="evenodd" d="M30.368 20.833C30.174 21.151 25.788 28.343 24.856 30.249C23.903 32.199 21.384 31.994 21.384 31.994L4.464 31.964L5.599 26.989L1.504 21.922H26.972C27.708 21.922 28.272 21.952 28.873 21.852C29.801 21.7 30.298 20.945 30.368 20.833V20.833ZM8.984 0.00599413L25.904 0.0359941L24.768 5.01099L28.863 10.078H3.396C2.66 10.078 2.096 10.048 1.494 10.148C0.566 10.3 0.07 11.055 0 11.167C0.193 10.851 4.579 3.65699 5.511 1.74999C6.465 -0.199006 8.984 0.00599413 8.984 0.00599413ZM3.01 11.183H17.33C17.33 11.183 21.291 13.588 25.943 16.263C27.805 17.333 28.982 18.082 29.027 19.019C29.073 19.961 28.212 20.817 26.843 20.817H12.522C12.522 20.817 10.132 19.334 3.91 15.738C2.05 14.663 0.91 14.031 0.86 12.982C0.813 12.039 1.64 11.182 3.01 11.182V11.183Z" fill="#122039"/>
</g>
<path fill-rule="evenodd" clip-rule="evenodd" d="M61.742 8.848V12.768C60.484 12.098 59.477 11.815 58.291 11.815C57.176 11.815 56.493 12.168 56.493 12.768C56.493 13.298 56.889 13.581 58.147 13.934C59.801 14.428 60.484 14.746 61.167 15.347C62.137 16.23 62.677 17.572 62.677 18.985C62.677 21.987 60.304 24 56.745 24C55.092 24 53.69 23.682 52.215 23.011V18.737C54.085 19.762 55.02 20.079 56.314 20.079C57.536 20.079 58.254 19.691 58.254 19.019C58.254 18.349 57.895 18.137 56.206 17.713C53.294 17.007 52 15.558 52 13.086C52 10.12 54.48 8 57.967 8C59.154 8 60.017 8.177 61.742 8.848V8.848ZM85.809 23.11H81.524V14.647C81.524 13.721 81.454 13.344 81.211 12.899C80.862 12.248 80.131 11.837 79.399 11.837C78.668 11.837 77.971 12.214 77.589 12.83C77.205 13.379 77.205 13.447 77.205 14.715V23.11H72.955V14.68C72.955 13.516 72.92 13.31 72.642 12.865C72.259 12.282 71.562 11.905 70.865 11.905C70.134 11.905 69.437 12.316 69.054 12.899C68.775 13.344 68.74 13.55 68.74 14.715V23.11H64.456V15.366C64.456 12.865 64.665 11.906 65.501 10.672C66.616 8.993 68.53 8 70.587 8C72.328 8 73.722 8.617 75.01 9.885C76.613 8.514 77.797 8.035 79.47 8.035C81.56 8.035 83.44 9.028 84.624 10.707C85.53 12.009 85.809 13.106 85.809 15.401V23.111V23.11ZM103.603 22.938H99.176V21.733C97.701 22.697 96.477 23.11 95.074 23.11C91.079 23.11 87.588 19.6 87.588 15.572C87.588 11.407 91.187 7.999 95.578 7.999C98.097 7.999 100.472 9.135 101.983 11.063C103.171 12.577 103.603 13.988 103.603 16.467V22.938V22.938ZM95.596 12.443C93.618 12.443 92.036 14.013 92.036 15.964C92.036 17.951 93.654 19.554 95.632 19.554C97.537 19.554 99.154 17.951 99.154 16.034C99.154 14.082 97.537 12.444 95.596 12.444V12.443ZM109.577 23.11H105.382V15.396C105.382 13.036 105.486 12.332 106.002 11.275C107.102 9.055 108.992 7.999 111.812 7.999C111.915 7.999 112.191 7.999 112.5 8.034V12.014H111.984C110.094 12.05 109.577 12.614 109.577 14.445V23.11ZM123.177 23.11H122.355C119.481 23.11 117.325 21.728 116.367 19.283C115.99 18.363 115.957 17.866 115.922 14.677V12.055H113.39V7.875H115.922V2.665H120.131V7.875H123.176V12.055H120.131V15.102C120.028 18.327 120.576 19.035 123.176 19.035V23.11H123.177ZM125.353 24.834H129.753C130.186 26.846 131.484 27.975 133.288 27.975C135.38 27.975 136.57 26.387 136.57 23.599V22.258C134.803 23.281 134.01 23.528 132.639 23.528C128.419 23.528 124.956 20.034 124.956 15.799C124.956 11.493 128.526 7.999 132.999 7.999C135.56 7.999 137.977 9.199 139.456 11.246C140.538 12.693 140.971 14.176 140.971 16.364V23.034C140.971 26.175 140.61 27.517 139.384 29.07C137.904 30.906 135.632 32 133.216 32C130.222 32 127.409 30.341 126.182 27.87C125.785 27.059 125.569 26.318 125.352 24.835L125.353 24.834ZM132.999 12.444C130.986 12.444 129.404 14.012 129.404 15.999C129.404 17.986 130.986 19.555 132.964 19.555C134.94 19.555 136.522 17.985 136.522 16.069C136.522 14.012 134.976 12.443 132.999 12.443V12.444ZM147.2 8V23.111H142.75V8H147.199H147.2ZM144.959 1.778C146.225 1.778 147.199 2.751 147.199 3.984C147.199 5.184 146.16 6.222 144.959 6.222C143.758 6.222 142.751 5.217 142.751 3.984C142.751 2.751 143.725 1.778 144.959 1.778ZM154.884 23.111H150.554V12.231H148.089V8.281H150.554V5.786C150.554 4.123 151.222 2.633 152.454 1.525C153.722 0.38 154.954 0 157.172 0H157.876V3.88H157.418C155.658 3.88 154.884 4.608 154.884 6.202V8.282H157.876V12.232H154.884V23.112V23.111ZM168.552 23.111H167.732C164.857 23.111 162.701 21.729 161.742 19.284C161.366 18.364 161.332 17.867 161.298 14.678V12.056H158.766V7.876H161.298V2.666H165.507V7.876H168.552V12.056H165.507V15.103C165.404 18.328 165.952 19.036 168.552 19.036V23.111V23.111Z" fill="#122039"/>
<defs>
<clipPath id="clip0">
<rect width="31" height="32" fill="white"/>
</clipPath>
</defs>
</svg>
